<svg version="1.1" id="Layer_1" xmlns="http://www.w3.org/2000/svg" xmlns:xlink="http://www.w3.org/1999/xlink" x="0px" y="0px"
	 width="100%" viewBox="0 0 848 272" enable-background="new 0 0 848 272" xml:space="preserve">
<path fill="#FDFDFD" opacity="1.000000" stroke="none" 
	d="
M560.000000,273.000000 
	C373.374847,273.000000 187.249710,273.000000 1.062284,273.000000 
	C1.062284,182.395111 1.062284,91.790176 1.062284,1.092618 
	C283.666656,1.092618 566.333313,1.092618 848.967590,1.092618 
	C848.967590,91.750351 848.967590,182.375183 848.967590,273.000000 
	C752.790100,273.000000 656.645081,273.000000 560.000000,273.000000 
M409.067444,209.188217 
	C406.151611,204.440994 402.432373,202.850403 397.929565,204.523224 
	C394.456879,205.813354 392.474884,208.198227 392.764526,212.089935 
	C393.077698,216.297791 395.815002,218.373764 399.561005,218.789337 
	C403.936951,219.274796 407.904755,218.340637 409.713379,212.584549 
	C413.334229,221.001953 420.425140,218.316742 427.082367,218.278519 
	C427.082367,214.129944 427.097015,210.332428 427.067871,206.535233 
	C427.063049,205.905579 426.866974,205.277374 426.708069,204.349518 
	C424.355133,204.349518 422.079407,204.701920 419.960510,204.275253 
	C415.712433,203.419815 412.904480,204.827393 411.034271,208.651443 
	C410.740051,209.252991 409.719849,209.499496 409.067444,209.188217 
M323.602325,210.389679 
	C324.494385,218.685486 326.452606,219.624741 339.714294,218.075546 
	C339.714294,213.535660 339.714294,208.993546 339.714294,204.432495 
	C333.251526,204.671295 326.236237,202.155746 322.254761,209.441299 
	C322.371307,198.530014 315.985748,193.886490 304.602936,196.589874 
	C304.602936,203.796143 304.602936,210.994003 304.602936,218.134399 
	C314.645660,219.478638 317.260315,218.289734 323.602325,210.389679 
M243.570663,127.096291 
	C242.080215,127.235428 240.561295,127.235596 239.103485,127.534119 
	C205.868683,134.339661 179.449829,151.371307 161.336884,180.303787 
	C152.238724,194.836594 146.313278,210.733719 145.100296,227.976990 
	C144.444214,237.303513 148.182465,240.647781 157.458649,240.650757 
	C186.111435,240.659958 214.764221,240.691315 243.417007,240.701126 
	C255.149078,240.705154 257.892090,237.998596 257.887421,226.405533 
	C257.875580,197.083450 257.843353,167.761383 257.824066,138.439301 
	C257.818604,130.147995 256.221619,128.310486 247.961044,127.243828 
	C246.809082,127.095085 245.633621,127.128410 243.570663,127.096291 
M96.694351,9.115291 
	C71.560730,17.741444 51.566662,33.101818 37.300243,55.491993 
	C28.028711,70.043030 21.043758,85.693573 20.017172,103.239883 
	C19.435373,113.183907 21.649126,114.993736 31.459171,114.736198 
	C32.956856,114.696884 34.456520,114.736786 35.955250,114.732918 
	C64.436180,114.659409 92.917236,114.612534 121.397934,114.486267 
	C126.859703,114.462044 129.775269,112.171875 131.014633,106.905754 
	C131.617355,104.344742 131.800613,101.635803 131.811050,98.992401 
	C131.894501,77.838570 131.892715,56.684391 131.913422,35.530323 
	C131.919952,28.867638 132.027542,22.202579 131.886932,15.542871 
	C131.723145,7.784652 128.089828,3.884783 120.446991,4.656984 
	C112.724747,5.437208 105.129280,7.472338 96.694351,9.115291 
M186.357620,11.048686 
	C177.047531,8.724109 167.847260,5.578118 158.395340,4.314453 
	C149.589706,3.137196 145.908936,7.420840 145.913818,16.345182 
	C145.929596,45.148510 145.992950,73.951881 146.092072,102.755051 
	C146.119873,110.827942 148.873123,113.736237 157.006012,114.582970 
	C158.657593,114.754929 160.327026,114.823654 161.988266,114.824501 
	C190.292206,114.838829 218.596146,114.847519 246.900040,114.807930 
	C248.872925,114.805176 250.872269,114.553223 252.812286,114.175552 
	C256.951416,113.369759 258.682434,110.604332 258.251556,106.572121 
	C257.828125,102.609825 257.359924,98.626274 256.511108,94.739471 
	C247.817078,54.928726 224.300735,27.409969 186.357620,11.048686 
M87.204727,231.299179 
	C97.891373,234.278259 108.470818,237.763092 119.302292,240.058853 
	C126.542397,241.593430 130.906586,237.475281 130.906189,230.054382 
	C130.904587,200.393890 130.796722,170.731934 130.451065,141.073761 
	C130.345810,132.042358 127.498665,129.734421 118.475922,129.699493 
	C98.813873,129.623398 79.151802,129.514008 59.489704,129.506866 
	C49.330238,129.503174 39.156807,129.402695 29.016344,129.895050 
	C22.798990,130.196930 19.576986,134.223969 20.282818,139.689957 
	C25.765257,182.146347 47.647648,212.741806 87.204727,231.299179 
M361.757111,146.429306 
	C368.549316,128.147995 375.341492,109.866692 382.133698,91.585388 
	C382.476257,91.683571 382.818817,91.781754 383.161377,91.879936 
	C383.161377,116.151993 383.161377,140.424057 383.161377,164.852921 
	C388.822449,164.852921 394.220001,164.852921 399.707031,164.852921 
	C399.707031,131.250610 399.707031,97.873741 399.707031,64.160896 
	C392.961578,64.160896 386.481140,64.429543 380.037445,64.058823 
	C376.251801,63.841030 374.479736,65.039963 373.205353,68.607330 
	C367.621429,84.238800 361.779510,99.778488 355.973145,115.329796 
	C354.715546,118.697975 353.218048,121.976585 351.385101,126.363815 
	C350.299683,123.812248 349.625793,122.353737 349.050751,120.857231 
	C342.263763,103.194687 335.543854,85.505913 328.622314,67.896347 
	C328.029144,66.387260 326.172638,64.397194 324.817383,64.328903 
	C317.721680,63.971397 310.598358,64.161873 303.338074,64.161873 
	C303.338074,98.043388 303.338074,131.419464 303.338074,164.785080 
	C308.690277,164.785080 313.758148,164.785080 319.774200,164.785080 
	C319.774200,140.228668 319.774200,115.959877 319.774200,91.691078 
	C320.178253,91.664948 320.582336,91.638817 320.986389,91.612694 
	C328.001740,110.736588 335.017059,129.860474 342.100189,149.169128 
	C347.306366,149.169128 352.303680,149.312698 357.282928,149.076126 
	C358.663605,149.010529 359.990662,147.816391 361.757111,146.429306 
M662.115845,180.491592 
	C662.115845,185.269135 662.115845,190.046692 662.115845,194.747437 
	C668.218262,194.747437 673.286865,194.747437 678.244019,194.747437 
	C678.244019,160.390793 678.244019,126.372841 678.244019,92.387726 
	C672.884644,92.387726 667.943542,92.387726 662.767822,92.387726 
	C662.315308,95.051086 661.894775,97.526009 661.412537,100.364120 
	C650.675903,87.244850 628.387512,87.486053 617.054749,101.061241 
	C604.652039,115.918175 604.430176,141.960114 617.156006,156.501709 
	C626.642700,167.342026 641.558289,170.462769 653.792542,164.005447 
	C656.356934,162.651932 658.618286,160.724136 662.093872,158.316589 
	C662.093872,165.997528 662.093872,172.746017 662.115845,180.491592 
M492.931427,134.536972 
	C493.320374,136.828217 493.560974,139.156464 494.121887,141.404800 
	C498.310455,158.193863 512.876770,169.340073 528.887390,166.739502 
	C535.439148,165.675323 541.529236,161.768616 547.870117,159.138123 
	C548.076294,160.344986 548.453735,162.554184 548.848022,164.862122 
	C553.858398,164.862122 558.611694,164.862122 563.555420,164.862122 
	C563.555420,130.293076 563.555420,95.943001 563.555420,61.467735 
	C558.214600,61.467735 553.158447,61.467735 547.839111,61.467735 
	C547.839111,68.421967 547.839111,75.066437 547.839111,81.710915 
	C547.839111,88.188965 547.839111,94.667023 547.839111,102.030350 
	C546.423889,100.770172 545.870178,100.389755 545.456848,99.892639 
	C533.942322,86.043350 511.468140,89.244385 501.570587,101.861214 
	C494.166992,111.298973 491.563416,121.915146 492.931427,134.536972 
M445.505798,133.079163 
	C457.921173,133.079163 470.336548,133.079163 484.201080,133.079163 
	C482.627014,125.207497 481.951874,118.059547 479.737030,111.425674 
	C471.345764,86.292397 435.039948,84.744011 421.324310,102.534798 
	C411.769073,114.929100 411.039734,128.731934 415.057526,142.819702 
	C421.555695,165.604675 450.784271,175.225372 470.142120,161.422348 
	C475.754578,157.420425 480.010040,152.417053 481.543915,144.828247 
	C477.391174,144.828247 473.863556,144.533783 470.412964,144.922729 
	C467.719879,145.226303 464.500153,145.652786 462.595123,147.285538 
	C455.939362,152.989960 448.720825,153.537598 441.196564,150.245651 
	C434.036621,147.113083 430.960968,140.900803 430.243927,133.079163 
	C435.191681,133.079163 439.850250,133.079163 445.505798,133.079163 
M786.416565,95.837753 
	C776.989075,101.657036 771.884888,110.316933 770.432739,121.083336 
	C766.730896,148.529999 781.168579,169.803436 810.784790,167.054703 
	C823.387634,165.885025 834.731812,156.738373 837.729370,144.994904 
	C833.689331,144.994904 829.694458,144.688889 825.777039,145.107513 
	C823.354492,145.366409 820.623657,146.198227 818.769714,147.690414 
	C812.504761,152.732971 805.541931,153.522781 798.609436,150.535767 
	C791.424988,147.440216 787.826050,141.162247 786.930176,132.917511 
	C804.489929,132.917511 821.748840,132.917511 839.181641,132.917511 
	C839.181641,130.232574 839.253174,127.925102 839.170776,125.623146 
	C838.135925,96.711304 812.583252,81.909798 786.416565,95.837753 
M718.249451,149.607864 
	C712.086609,146.454651 711.397705,140.474899 711.126404,134.689697 
	C710.690002,125.382332 710.838074,116.046959 710.769043,106.723190 
	C710.733643,101.945526 710.762817,97.167389 710.762817,92.349533 
	C704.968872,92.349533 700.024475,92.349533 694.309998,92.349533 
	C694.309998,99.822449 694.233093,107.115334 694.328369,114.405960 
	C694.465210,124.880028 694.218201,135.394836 695.085022,145.813217 
	C695.889648,155.484467 704.305603,164.708267 712.570801,166.004135 
	C723.098083,167.654678 733.263611,167.369873 741.108765,158.499863 
	C741.337830,158.240936 741.963989,158.333130 742.634949,158.224319 
	C742.891846,160.808304 743.132446,163.228287 743.392151,165.840500 
	C748.813293,165.840500 753.907227,165.840500 759.196533,165.840500 
	C759.196533,141.339966 759.196533,116.937912 759.196533,92.498672 
	C753.878052,92.498672 748.838562,92.498672 743.000061,92.498672 
	C743.000061,106.135155 743.169189,119.433304 742.955444,132.725281 
	C742.712402,147.835831 733.284485,154.479401 718.249451,149.607864 
M577.796692,161.416382 
	C577.956848,163.052231 576.991760,165.243729 580.186096,165.123215 
	C584.612244,164.956238 589.049377,165.081253 593.424683,165.081253 
	C593.424683,140.445084 593.424683,116.419914 593.424683,92.395561 
	C588.108704,92.395561 583.174927,92.395561 577.796631,92.395561 
	C577.796631,115.235809 577.796631,137.834625 577.796692,161.416382 
M576.384338,65.171509 
	C576.021484,67.107178 575.357056,69.042007 575.351685,70.978661 
	C575.334900,77.012794 580.262634,81.782700 586.022827,81.569450 
	C592.128662,81.343414 597.004395,76.210915 596.823242,70.227005 
	C596.674255,65.306610 593.961792,61.838818 589.648376,60.425926 
	C584.764465,58.826191 580.107666,60.029896 576.384338,65.171509 
M448.944397,204.062241 
	C444.504059,205.207977 442.131439,208.416046 443.318115,212.543320 
	C444.031891,215.025864 446.859985,217.880676 449.325256,218.626358 
	C452.274170,219.518295 455.849792,218.338074 459.163391,218.054535 
	C459.163391,210.291733 459.163391,202.744019 459.163391,195.137253 
	C457.537231,195.137253 456.252930,195.137253 454.525818,195.137253 
	C454.525818,198.434448 454.525818,201.527466 454.525818,204.744263 
	C452.640167,204.455811 451.203857,204.236084 448.944397,204.062241 
M385.222382,218.919113 
	C390.447723,216.867889 392.299438,213.721191 391.004333,209.093628 
	C389.806610,204.814209 386.575928,203.473450 379.770691,204.667313 
	C379.770691,201.510132 379.770691,198.416397 379.770691,195.188263 
	C377.989532,195.188263 376.609558,195.188263 375.161377,195.188263 
	C375.161377,203.013718 375.161377,210.571060 375.161377,218.091568 
	C378.411072,218.394089 381.413086,218.673553 385.222382,218.919113 
M470.153107,214.145401 
	C470.393921,219.049011 470.393921,219.049011 475.283722,217.704605 
	C475.397797,215.315948 475.513824,212.886139 475.640167,210.240372 
	C476.941010,210.167755 477.915894,210.146973 478.883728,210.053680 
	C483.916656,209.568512 486.362122,207.014206 486.178650,202.461395 
	C486.008331,198.234299 483.537323,196.093964 478.462494,195.917938 
	C475.850220,195.827347 473.232208,195.902039 470.830078,195.902039 
	C470.479431,196.672134 470.234070,196.961700 470.231689,197.253281 
	C470.188141,202.576584 470.173706,207.900116 470.153107,214.145401 
M361.793610,210.856140 
	C362.885101,209.922394 363.976593,208.988647 365.068085,208.054886 
	C365.707184,209.255646 366.714661,210.401947 366.901978,211.669464 
	C367.209625,213.751373 366.985352,215.911865 366.985352,218.298965 
	C368.764740,218.298965 370.155151,218.298965 371.509949,218.298965 
	C373.136444,205.844986 371.174683,203.047836 361.633453,204.593445 
	C361.633453,201.434280 361.633453,198.342941 361.633453,194.914276 
	C359.792236,195.020264 358.413513,195.099625 357.137360,195.173096 
	C357.137360,203.138763 357.137360,210.698944 357.137360,218.652130 
	C358.879150,218.461090 360.252686,218.310440 361.772919,218.143707 
	C361.772919,215.710464 361.772919,213.721405 361.793610,210.856140 
M492.780090,218.949249 
	C496.053375,218.667999 499.326660,218.386765 502.669678,218.099518 
	C502.669678,213.537354 502.669678,209.125076 502.669678,204.615433 
	C500.342255,204.615433 498.170715,205.061401 496.275360,204.527359 
	C491.587799,203.206573 488.396088,204.499725 486.805664,209.097931 
	C485.314575,213.408997 487.002380,216.428024 492.780090,218.949249 
M524.650085,215.759903 
	C529.825256,220.396240 534.139160,220.217758 537.917419,214.957321 
	C536.408264,214.446167 534.991699,213.966370 533.165588,213.347855 
	C535.171265,212.611908 536.809998,212.010605 538.440186,211.402344 
	C537.615112,205.755539 533.950073,202.912689 529.079285,204.141403 
	C524.264954,205.355881 522.369812,209.620789 524.650085,215.759903 
M521.232178,216.718811 
	C521.226929,214.236053 521.864563,211.505798 521.031494,209.341690 
	C520.234131,207.270416 518.150818,204.738708 516.198730,204.287704 
	C513.144592,203.582092 509.724915,204.458939 506.269348,204.677505 
	C506.269348,209.256500 506.269348,213.645096 506.269348,218.309372 
	C507.876434,218.309372 509.262482,218.309372 511.079834,218.309372 
	C511.079834,215.626053 510.790649,213.125549 511.212830,210.751572 
	C511.398804,209.705902 513.030884,208.917404 514.006409,208.012161 
	C514.752441,208.932602 516.010132,209.785431 516.142456,210.786972 
	C516.458679,213.179779 516.244507,215.642700 516.244507,218.956146 
	C518.382751,218.331055 519.775391,217.923904 521.232178,216.718811 
M350.569763,209.799179 
	C349.771210,209.365433 348.972626,208.931671 348.050934,208.431046 
	C350.275879,207.660583 352.146759,207.012711 354.017670,206.364838 
	C350.305695,203.550293 346.656464,202.876038 344.238251,206.103287 
	C340.346375,211.297394 347.332184,211.744919 348.906372,214.572800 
	C346.963074,216.165100 342.556458,211.672119 342.903381,217.545197 
	C346.751160,219.440262 350.789459,220.245422 353.644501,216.454636 
	C355.422211,214.094284 354.287384,211.357651 350.569763,209.799179 
M545.781006,209.429245 
	C545.781006,204.677399 545.781006,199.925552 545.781006,194.841995 
	C543.764648,194.992142 542.381897,195.095108 541.099304,195.190598 
	C541.099304,203.134445 541.099304,210.672516 541.099304,218.602753 
	C542.798889,218.461349 544.169678,218.347290 545.780945,218.213242 
	C545.780945,215.326157 545.780945,212.861282 545.781006,209.429245 
M438.117645,208.330505 
	C441.398407,209.193237 442.063049,207.349670 442.122925,204.221924 
	C438.096985,204.402588 434.299622,204.572983 430.446350,204.745895 
	C430.446350,209.411423 430.446350,213.678833 430.446350,218.341293 
	C432.026428,218.411789 433.416412,218.473816 434.128204,218.505569 
	C435.271423,214.837585 436.251984,211.691483 438.117645,208.330505 
z"/>
<path fill="#0B0B0B" opacity="1.000000" stroke="none" 
	d="
M244.019852,127.086868 
	C245.633621,127.128410 246.809082,127.095085 247.961044,127.243828 
	C256.221619,128.310486 257.818604,130.147995 257.824066,138.439301 
	C257.843353,167.761383 257.875580,197.083450 257.887421,226.405533 
	C257.892090,237.998596 255.149078,240.705154 243.417007,240.701126 
	C214.764221,240.691315 186.111435,240.659958 157.458649,240.650757 
	C148.182465,240.647781 144.444214,237.303513 145.100296,227.976990 
	C146.313278,210.733719 152.238724,194.836594 161.336884,180.303787 
	C179.449829,151.371307 205.868683,134.339661 239.103485,127.534119 
	C240.561295,127.235596 242.080215,127.235428 244.019852,127.086868 
z"/>
<path fill="#0B0B0C" opacity="1.000000" stroke="none" 
	d="
M97.086319,9.036509 
	C105.129280,7.472338 112.724747,5.437208 120.446991,4.656984 
	C128.089828,3.884783 131.723145,7.784652 131.886932,15.542871 
	C132.027542,22.202579 131.919952,28.867638 131.913422,35.530323 
	C131.892715,56.684391 131.894501,77.838570 131.811050,98.992401 
	C131.800613,101.635803 131.617355,104.344742 131.014633,106.905754 
	C129.775269,112.171875 126.859703,114.462044 121.397934,114.486267 
	C92.917236,114.612534 64.436180,114.659409 35.955250,114.732918 
	C34.456520,114.736786 32.956856,114.696884 31.459171,114.736198 
	C21.649126,114.993736 19.435373,113.183907 20.017172,103.239883 
	C21.043758,85.693573 28.028711,70.043030 37.300243,55.491993 
	C51.566662,33.101818 71.560730,17.741444 97.086319,9.036509 
z"/>
<path fill="#0B0B0B" opacity="1.000000" stroke="none" 
	d="
M186.721695,11.180162 
	C224.300735,27.409969 247.817078,54.928726 256.511108,94.739471 
	C257.359924,98.626274 257.828125,102.609825 258.251556,106.572121 
	C258.682434,110.604332 256.951416,113.369759 252.812286,114.175552 
	C250.872269,114.553223 248.872925,114.805176 246.900040,114.807930 
	C218.596146,114.847519 190.292206,114.838829 161.988266,114.824501 
	C160.327026,114.823654 158.657593,114.754929 157.006012,114.582970 
	C148.873123,113.736237 146.119873,110.827942 146.092072,102.755051 
	C145.992950,73.951881 145.929596,45.148510 145.913818,16.345182 
	C145.908936,7.420840 149.589706,3.137196 158.395340,4.314453 
	C167.847260,5.578118 177.047531,8.724109 186.721695,11.180162 
z"/>
<path fill="#0B0B0B" opacity="1.000000" stroke="none" 
	d="
M86.844772,231.168243 
	C47.647648,212.741806 25.765257,182.146347 20.282818,139.689957 
	C19.576986,134.223969 22.798990,130.196930 29.016344,129.895050 
	C39.156807,129.402695 49.330238,129.503174 59.489704,129.506866 
	C79.151802,129.514008 98.813873,129.623398 118.475922,129.699493 
	C127.498665,129.734421 130.345810,132.042358 130.451065,141.073761 
	C130.796722,170.731934 130.904587,200.393890 130.906189,230.054382 
	C130.906586,237.475281 126.542397,241.593430 119.302292,240.058853 
	C108.470818,237.763092 97.891373,234.278259 86.844772,231.168243 
z"/>
<path fill="#0D0D0D" opacity="1.000000" stroke="none" 
	d="
M361.549713,146.784668 
	C359.990662,147.816391 358.663605,149.010529 357.282928,149.076126 
	C352.303680,149.312698 347.306366,149.169128 342.100189,149.169128 
	C335.017059,129.860474 328.001740,110.736588 320.986389,91.612694 
	C320.582336,91.638817 320.178253,91.664948 319.774200,91.691078 
	C319.774200,115.959877 319.774200,140.228668 319.774200,164.785080 
	C313.758148,164.785080 308.690277,164.785080 303.338074,164.785080 
	C303.338074,131.419464 303.338074,98.043388 303.338074,64.161873 
	C310.598358,64.161873 317.721680,63.971397 324.817383,64.328903 
	C326.172638,64.397194 328.029144,66.387260 328.622314,67.896347 
	C335.543854,85.505913 342.263763,103.194687 349.050751,120.857231 
	C349.625793,122.353737 350.299683,123.812248 351.385101,126.363815 
	C353.218048,121.976585 354.715546,118.697975 355.973145,115.329796 
	C361.779510,99.778488 367.621429,84.238800 373.205353,68.607330 
	C374.479736,65.039963 376.251801,63.841030 380.037445,64.058823 
	C386.481140,64.429543 392.961578,64.160896 399.707031,64.160896 
	C399.707031,97.873741 399.707031,131.250610 399.707031,164.852921 
	C394.220001,164.852921 388.822449,164.852921 383.161377,164.852921 
	C383.161377,140.424057 383.161377,116.151993 383.161377,91.879936 
	C382.818817,91.781754 382.476257,91.683571 382.133698,91.585388 
	C375.341492,109.866692 368.549316,128.147995 361.549713,146.784668 
z"/>
<path fill="#101010" opacity="1.000000" stroke="none" 
	d="
M662.104858,179.993042 
	C662.093872,172.746017 662.093872,165.997528 662.093872,158.316589 
	C658.618286,160.724136 656.356934,162.651932 653.792542,164.005447 
	C641.558289,170.462769 626.642700,167.342026 617.156006,156.501709 
	C604.430176,141.960114 604.652039,115.918175 617.054749,101.061241 
	C628.387512,87.486053 650.675903,87.244850 661.412537,100.364120 
	C661.894775,97.526009 662.315308,95.051086 662.767822,92.387726 
	C667.943542,92.387726 672.884644,92.387726 678.244019,92.387726 
	C678.244019,126.372841 678.244019,160.390793 678.244019,194.747437 
	C673.286865,194.747437 668.218262,194.747437 662.115845,194.747437 
	C662.115845,190.046692 662.115845,185.269135 662.104858,179.993042 
M625.348755,133.760559 
	C625.577881,134.900330 625.765076,136.050430 626.042969,137.178207 
	C627.580261,143.416931 630.120178,149.072006 637.109070,150.541992 
	C644.420837,152.079895 651.565918,152.179214 657.563477,146.265152 
	C667.153564,136.808533 665.580750,118.069847 654.249878,109.119911 
	C648.777954,104.797806 639.018982,104.947357 633.260681,108.941338 
	C624.519897,115.003975 623.987366,123.597504 625.348755,133.760559 
z"/>
<path fill="#0D0D0D" opacity="1.000000" stroke="none" 
	d="
M492.902039,134.102493 
	C491.563416,121.915146 494.166992,111.298973 501.570587,101.861214 
	C511.468140,89.244385 533.942322,86.043350 545.456848,99.892639 
	C545.870178,100.389755 546.423889,100.770172 547.839111,102.030350 
	C547.839111,94.667023 547.839111,88.188965 547.839111,81.710915 
	C547.839111,75.066437 547.839111,68.421967 547.839111,61.467735 
	C553.158447,61.467735 558.214600,61.467735 563.555420,61.467735 
	C563.555420,95.943001 563.555420,130.293076 563.555420,164.862122 
	C558.611694,164.862122 553.858398,164.862122 548.848022,164.862122 
	C548.453735,162.554184 548.076294,160.344986 547.870117,159.138123 
	C541.529236,161.768616 535.439148,165.675323 528.887390,166.739502 
	C512.876770,169.340073 498.310455,158.193863 494.121887,141.404800 
	C493.560974,139.156464 493.320374,136.828217 492.902039,134.102493 
M547.415649,120.363266 
	C546.253601,118.170135 545.251038,115.873169 543.902222,113.801643 
	C537.733215,104.327164 522.419006,103.149055 514.943848,112.032471 
	C507.447479,120.940987 508.293365,130.576889 511.827728,140.204346 
	C517.001892,154.298584 534.920837,156.898392 543.937195,144.845657 
	C549.140869,137.889603 550.298401,129.621109 547.415649,120.363266 
z"/>
<path fill="#0E0D0E" opacity="1.000000" stroke="none" 
	d="
M445.007324,133.079163 
	C439.850250,133.079163 435.191681,133.079163 430.243927,133.079163 
	C430.960968,140.900803 434.036621,147.113083 441.196564,150.245651 
	C448.720825,153.537598 455.939362,152.989960 462.595123,147.285538 
	C464.500153,145.652786 467.719879,145.226303 470.412964,144.922729 
	C473.863556,144.533783 477.391174,144.828247 481.543915,144.828247 
	C480.010040,152.417053 475.754578,157.420425 470.142120,161.422348 
	C450.784271,175.225372 421.555695,165.604675 415.057526,142.819702 
	C411.039734,128.731934 411.769073,114.929100 421.324310,102.534798 
	C435.039948,84.744011 471.345764,86.292397 479.737030,111.425674 
	C481.951874,118.059547 482.627014,125.207497 484.201080,133.079163 
	C470.336548,133.079163 457.921173,133.079163 445.007324,133.079163 
M434.826355,110.304474 
	C433.024628,113.624382 431.222931,116.944283 429.122864,120.813965 
	C442.260925,120.813965 454.010925,120.813965 467.046082,120.813965 
	C465.581604,117.372238 464.885712,114.261986 463.150818,111.922096 
	C456.624359,103.119652 444.961334,102.364212 434.826355,110.304474 
z"/>
<path fill="#0E0E0E" opacity="1.000000" stroke="none" 
	d="
M786.711060,95.615067 
	C812.583252,81.909798 838.135925,96.711304 839.170776,125.623146 
	C839.253174,127.925102 839.181641,130.232574 839.181641,132.917511 
	C821.748840,132.917511 804.489929,132.917511 786.930176,132.917511 
	C787.826050,141.162247 791.424988,147.440216 798.609436,150.535767 
	C805.541931,153.522781 812.504761,152.732971 818.769714,147.690414 
	C820.623657,146.198227 823.354492,145.366409 825.777039,145.107513 
	C829.694458,144.688889 833.689331,144.994904 837.729370,144.994904 
	C834.731812,156.738373 823.387634,165.885025 810.784790,167.054703 
	C781.168579,169.803436 766.730896,148.529999 770.432739,121.083336 
	C771.884888,110.316933 776.989075,101.657036 786.711060,95.615067 
M819.681030,112.040771 
	C813.894531,105.004524 806.236084,102.830956 797.966187,105.877724 
	C791.268799,108.345200 788.027649,113.184692 788.017639,120.901009 
	C799.279968,120.901009 810.541992,120.901009 822.580872,120.901009 
	C821.658752,117.929840 820.850342,115.325066 819.681030,112.040771 
z"/>
<path fill="#0D0D0D" opacity="1.000000" stroke="none" 
	d="
M718.623535,149.762573 
	C733.284485,154.479401 742.712402,147.835831 742.955444,132.725281 
	C743.169189,119.433304 743.000061,106.135155 743.000061,92.498672 
	C748.838562,92.498672 753.878052,92.498672 759.196533,92.498672 
	C759.196533,116.937912 759.196533,141.339966 759.196533,165.840500 
	C753.907227,165.840500 748.813293,165.840500 743.392151,165.840500 
	C743.132446,163.228287 742.891846,160.808304 742.634949,158.224319 
	C741.963989,158.333130 741.337830,158.240936 741.108765,158.499863 
	C733.263611,167.369873 723.098083,167.654678 712.570801,166.004135 
	C704.305603,164.708267 695.889648,155.484467 695.085022,145.813217 
	C694.218201,135.394836 694.465210,124.880028 694.328369,114.405960 
	C694.233093,107.115334 694.309998,99.822449 694.309998,92.349533 
	C700.024475,92.349533 704.968872,92.349533 710.762817,92.349533 
	C710.762817,97.167389 710.733643,101.945526 710.769043,106.723190 
	C710.838074,116.046959 710.690002,125.382332 711.126404,134.689697 
	C711.397705,140.474899 712.086609,146.454651 718.623535,149.762573 
z"/>
<path fill="#101010" opacity="1.000000" stroke="none" 
	d="
M577.796631,160.924911 
	C577.796631,137.834625 577.796631,115.235809 577.796631,92.395561 
	C583.174927,92.395561 588.108704,92.395561 593.424683,92.395561 
	C593.424683,116.419914 593.424683,140.445084 593.424683,165.081253 
	C589.049377,165.081253 584.612244,164.956238 580.186096,165.123215 
	C576.991760,165.243729 577.956848,163.052231 577.796631,160.924911 
z"/>
<path fill="#111111" opacity="1.000000" stroke="none" 
	d="
M576.630859,64.872681 
	C580.107666,60.029896 584.764465,58.826191 589.648376,60.425926 
	C593.961792,61.838818 596.674255,65.306610 596.823242,70.227005 
	C597.004395,76.210915 592.128662,81.343414 586.022827,81.569450 
	C580.262634,81.782700 575.334900,77.012794 575.351685,70.978661 
	C575.357056,69.042007 576.021484,67.107178 576.630859,64.872681 
z"/>
<path fill="#2C1D88" opacity="1.000000" stroke="none" 
	d="
M322.868225,210.032715 
	C317.260315,218.289734 314.645660,219.478638 304.602936,218.134399 
	C304.602936,210.994003 304.602936,203.796143 304.602936,196.589874 
	C315.985748,193.886490 322.371307,198.530014 322.538330,209.751617 
	C322.821899,210.061920 322.868225,210.032715 322.868225,210.032715 
M309.663544,211.956329 
	C310.551636,212.483078 311.653137,213.645386 312.292328,213.430756 
	C315.768616,212.263565 317.296021,209.491455 316.632782,206.001770 
	C315.994934,202.645599 314.069153,200.326904 309.650452,201.024399 
	C309.650452,204.451172 309.650452,207.756409 309.663544,211.956329 
z"/>
<path fill="#211281" opacity="1.000000" stroke="none" 
	d="
M449.355957,204.039307 
	C451.203857,204.236084 452.640167,204.455811 454.525818,204.744263 
	C454.525818,201.527466 454.525818,198.434448 454.525818,195.137253 
	C456.252930,195.137253 457.537231,195.137253 459.163391,195.137253 
	C459.163391,202.744019 459.163391,210.291733 459.163391,218.054535 
	C455.849792,218.338074 452.274170,219.518295 449.325256,218.626358 
	C446.859985,217.880676 444.031891,215.025864 443.318115,212.543320 
	C442.131439,208.416046 444.504059,205.207977 449.355957,204.039307 
M454.028229,213.529099 
	C453.656006,211.862350 453.489960,210.094528 452.759125,208.603577 
	C452.587585,208.253632 450.009735,208.416168 449.427734,209.099701 
	C448.663300,209.997482 448.270905,212.627625 448.604248,212.800003 
	C450.062500,213.554062 451.840912,213.689026 454.028229,213.529099 
z"/>
<path fill="#251684" opacity="1.000000" stroke="none" 
	d="
M384.818726,218.936066 
	C381.413086,218.673553 378.411072,218.394089 375.161377,218.091568 
	C375.161377,210.571060 375.161377,203.013718 375.161377,195.188263 
	C376.609558,195.188263 377.989532,195.188263 379.770691,195.188263 
	C379.770691,198.416397 379.770691,201.510132 379.770691,204.667313 
	C386.575928,203.473450 389.806610,204.814209 391.004333,209.093628 
	C392.299438,213.721191 390.447723,216.867889 384.818726,218.936066 
M384.090790,208.384811 
	C382.688629,209.114990 380.922424,209.563492 380.043915,210.698868 
	C379.628937,211.235168 380.604034,213.486267 381.533600,214.211517 
	C382.216400,214.744247 384.838470,214.219193 384.891571,213.890305 
	C385.157227,212.244904 384.860443,210.508713 384.090790,208.384811 
z"/>
<path fill="#251684" opacity="1.000000" stroke="none" 
	d="
M470.153107,213.684509 
	C470.173706,207.900116 470.188141,202.576584 470.231689,197.253281 
	C470.234070,196.961700 470.479431,196.672134 470.830078,195.902039 
	C473.232208,195.902039 475.850220,195.827347 478.462494,195.917938 
	C483.537323,196.093964 486.008331,198.234299 486.178650,202.461395 
	C486.362122,207.014206 483.916656,209.568512 478.883728,210.053680 
	C477.915894,210.146973 476.941010,210.167755 475.640167,210.240372 
	C475.513824,212.886139 475.397797,215.315948 475.283722,217.704605 
	C470.393921,219.049011 470.393921,219.049011 470.153107,213.684509 
M476.546265,205.992508 
	C477.974091,204.822815 479.401917,203.653137 480.829742,202.483429 
	C479.314209,201.487564 477.798676,200.491714 475.045898,198.682861 
	C475.420502,202.226059 475.605194,203.973038 476.546265,205.992508 
z"/>
<path fill="#291A86" opacity="1.000000" stroke="none" 
	d="
M361.783264,211.294250 
	C361.772919,213.721405 361.772919,215.710464 361.772919,218.143707 
	C360.252686,218.310440 358.879150,218.461090 357.137360,218.652130 
	C357.137360,210.698944 357.137360,203.138763 357.137360,195.173096 
	C358.413513,195.099625 359.792236,195.020264 361.633453,194.914276 
	C361.633453,198.342941 361.633453,201.434280 361.633453,204.593445 
	C371.174683,203.047836 373.136444,205.844986 371.509949,218.298965 
	C370.155151,218.298965 368.764740,218.298965 366.985352,218.298965 
	C366.985352,215.911865 367.209625,213.751373 366.901978,211.669464 
	C366.714661,210.401947 365.707184,209.255646 365.068054,208.054901 
	C363.976593,208.988647 362.885101,209.922394 361.783264,211.294250 
z"/>
<path fill="#2A1B87" opacity="1.000000" stroke="none" 
	d="
M492.382568,218.907043 
	C487.002380,216.428024 485.314575,213.408997 486.805664,209.097931 
	C488.396088,204.499725 491.587799,203.206573 496.275360,204.527359 
	C498.170715,205.061401 500.342255,204.615433 502.669678,204.615433 
	C502.669678,209.125076 502.669678,213.537354 502.669678,218.099518 
	C499.326660,218.386765 496.053375,218.667999 492.382568,218.907043 
M494.480438,214.770279 
	C495.647858,213.521927 497.024292,212.390152 497.832153,210.941315 
	C498.028259,210.589661 496.480042,208.667496 495.499268,208.427887 
	C494.544647,208.194656 492.304382,209.274368 492.334412,209.635971 
	C492.472900,211.304031 493.206940,212.922638 494.480438,214.770279 
z"/>
<path fill="#271885" opacity="1.000000" stroke="none" 
	d="
M409.035339,209.910172 
	C409.719849,209.499496 410.740051,209.252991 411.034271,208.651443 
	C412.904480,204.827393 415.712433,203.419815 419.960510,204.275253 
	C422.079407,204.701920 424.355133,204.349518 426.708069,204.349518 
	C426.866974,205.277374 427.063049,205.905579 427.067871,206.535233 
	C427.097015,210.332428 427.082367,214.129944 427.082367,218.278519 
	C420.425140,218.316742 413.334229,221.001953 409.352539,212.437195 
	C409.006256,211.496628 409.020782,210.703400 409.035339,209.910172 
M416.155884,213.001038 
	C417.835175,213.308624 419.521820,213.814484 421.187408,213.752792 
	C421.511780,213.740768 422.245239,211.345047 421.894928,210.370636 
	C421.552795,209.419128 419.382080,208.113159 419.191650,208.283005 
	C417.934387,209.404373 416.994781,210.881897 416.155884,213.001038 
z"/>
<path fill="#271885" opacity="1.000000" stroke="none" 
	d="
M322.804688,210.083176 
	C326.236237,202.155746 333.251526,204.671295 339.714294,204.432495 
	C339.714294,208.993546 339.714294,213.535660 339.714294,218.075546 
	C326.452606,219.624741 324.494385,218.685486 323.235291,210.211197 
	C322.868225,210.032715 322.821899,210.061920 322.804688,210.083176 
M333.858582,214.156174 
	C333.981476,212.450150 334.296692,210.716675 334.060486,209.061935 
	C334.014771,208.741837 331.400482,208.183380 330.708191,208.707855 
	C329.760162,209.426071 328.731659,211.685791 329.131683,212.199692 
	C330.020355,213.341263 331.776031,213.807907 333.858582,214.156174 
z"/>
<path fill="#2F2189" opacity="1.000000" stroke="none" 
	d="
M524.420166,215.451874 
	C522.369812,209.620789 524.264954,205.355881 529.079285,204.141403 
	C533.950073,202.912689 537.615112,205.755539 538.444458,211.405823 
	C536.809998,212.010605 535.171265,212.611908 533.165588,213.347855 
	C534.991699,213.966370 536.408264,214.446167 537.917419,214.957321 
	C534.139160,220.217758 529.825256,220.396240 524.420166,215.451874 
z"/>
<path fill="#2C1D87" opacity="1.000000" stroke="none" 
	d="
M521.200073,217.117798 
	C519.775391,217.923904 518.382751,218.331055 516.244507,218.956146 
	C516.244507,215.642700 516.458679,213.179779 516.142456,210.786972 
	C516.010132,209.785431 514.752441,208.932602 514.006409,208.012146 
	C513.030884,208.917404 511.398804,209.705902 511.212830,210.751572 
	C510.790649,213.125549 511.079834,215.626053 511.079834,218.309372 
	C509.262482,218.309372 507.876434,218.309372 506.269348,218.309372 
	C506.269348,213.645096 506.269348,209.256500 506.269348,204.677505 
	C509.724915,204.458939 513.144592,203.582092 516.198730,204.287704 
	C518.150818,204.738708 520.234131,207.270416 521.031494,209.341690 
	C521.864563,211.505798 521.226929,214.236053 521.200073,217.117798 
z"/>
<path fill="#221382" opacity="1.000000" stroke="none" 
	d="
M409.051392,209.549194 
	C409.020782,210.703400 409.006256,211.496628 409.011963,212.686172 
	C407.904755,218.340637 403.936951,219.274796 399.561005,218.789337 
	C395.815002,218.373764 393.077698,216.297791 392.764526,212.089935 
	C392.474884,208.198227 394.456879,205.813354 397.929565,204.523224 
	C402.432373,202.850403 406.151611,204.440994 409.051392,209.549194 
M403.934296,209.911942 
	C402.394714,209.519547 400.779846,208.689972 399.350189,208.936081 
	C398.721771,209.044250 397.851715,211.569763 398.223114,212.582764 
	C398.589294,213.581467 401.036346,214.905106 401.433105,214.601227 
	C402.634888,213.680725 403.285492,212.040573 403.934296,209.911942 
z"/>
<path fill="#291A86" opacity="1.000000" stroke="none" 
	d="
M350.920837,209.905090 
	C354.287384,211.357651 355.422211,214.094284 353.644501,216.454636 
	C350.789459,220.245422 346.751160,219.440262 342.903381,217.545197 
	C342.556458,211.672119 346.963074,216.165100 348.906372,214.572800 
	C347.332184,211.744919 340.346375,211.297394 344.238251,206.103287 
	C346.656464,202.876038 350.305695,203.550293 354.017670,206.364838 
	C352.146759,207.012711 350.275879,207.660583 348.050934,208.431046 
	C348.972626,208.931671 349.771210,209.365433 350.920837,209.905090 
z"/>
<path fill="#2D1E88" opacity="1.000000" stroke="none" 
	d="
M545.781006,209.912842 
	C545.780945,212.861282 545.780945,215.326157 545.780945,218.213242 
	C544.169678,218.347290 542.798889,218.461349 541.099304,218.602753 
	C541.099304,210.672516 541.099304,203.134445 541.099304,195.190598 
	C542.381897,195.095108 543.764648,194.992142 545.781006,194.841995 
	C545.781006,199.925552 545.781006,204.677399 545.781006,209.912842 
z"/>
<path fill="#31238B" opacity="1.000000" stroke="none" 
	d="
M437.675110,208.437943 
	C436.251984,211.691483 435.271423,214.837585 434.128204,218.505569 
	C433.416412,218.473816 432.026428,218.411789 430.446350,218.341293 
	C430.446350,213.678833 430.446350,209.411423 430.446350,204.745895 
	C434.299622,204.572983 438.096985,204.402588 442.122925,204.221924 
	C442.063049,207.349670 441.398407,209.193237 437.675110,208.437943 
z"/>
<path fill="#FBFBFB" opacity="1.000000" stroke="none" 
	d="
M625.273560,133.324265 
	C623.987366,123.597504 624.519897,115.003975 633.260681,108.941338 
	C639.018982,104.947357 648.777954,104.797806 654.249878,109.119911 
	C665.580750,118.069847 667.153564,136.808533 657.563477,146.265152 
	C651.565918,152.179214 644.420837,152.079895 637.109070,150.541992 
	C630.120178,149.072006 627.580261,143.416931 626.042969,137.178207 
	C625.765076,136.050430 625.577881,134.900330 625.273560,133.324265 
z"/>
<path fill="#F9F9F9" opacity="1.000000" stroke="none" 
	d="
M547.590088,120.724213 
	C550.298401,129.621109 549.140869,137.889603 543.937195,144.845657 
	C534.920837,156.898392 517.001892,154.298584 511.827728,140.204346 
	C508.293365,130.576889 507.447479,120.940987 514.943848,112.032471 
	C522.419006,103.149055 537.733215,104.327164 543.902222,113.801643 
	C545.251038,115.873169 546.253601,118.170135 547.590088,120.724213 
z"/>
<path fill="#F9F9F9" opacity="1.000000" stroke="none" 
	d="
M435.097412,110.055809 
	C444.961334,102.364212 456.624359,103.119652 463.150818,111.922096 
	C464.885712,114.261986 465.581604,117.372238 467.046082,120.813965 
	C454.010925,120.813965 442.260925,120.813965 429.122864,120.813965 
	C431.222931,116.944283 433.024628,113.624382 435.097412,110.055809 
z"/>
<path fill="#F9F9F9" opacity="1.000000" stroke="none" 
	d="
M819.861450,112.380539 
	C820.850342,115.325066 821.658752,117.929840 822.580872,120.901009 
	C810.541992,120.901009 799.279968,120.901009 788.017639,120.901009 
	C788.027649,113.184692 791.268799,108.345200 797.966187,105.877724 
	C806.236084,102.830956 813.894531,105.004524 819.861450,112.380539 
z"/>
<path fill="#F4F4F9" opacity="1.000000" stroke="none" 
	d="
M309.656982,211.508987 
	C309.650452,207.756409 309.650452,204.451172 309.650452,201.024399 
	C314.069153,200.326904 315.994934,202.645599 316.632782,206.001770 
	C317.296021,209.491455 315.768616,212.263565 312.292328,213.430756 
	C311.653137,213.645386 310.551636,212.483078 309.656982,211.508987 
z"/>
<path fill="#E6E4F0" opacity="1.000000" stroke="none" 
	d="
M453.765686,213.788879 
	C451.840912,213.689026 450.062500,213.554062 448.604248,212.800003 
	C448.270905,212.627625 448.663300,209.997482 449.427734,209.099701 
	C450.009735,208.416168 452.587585,208.253632 452.759125,208.603577 
	C453.489960,210.094528 453.656006,211.862350 453.765686,213.788879 
z"/>
<path fill="#EBEAF3" opacity="1.000000" stroke="none" 
	d="
M384.426086,208.594620 
	C384.860443,210.508713 385.157227,212.244904 384.891571,213.890305 
	C384.838470,214.219193 382.216400,214.744247 381.533600,214.211517 
	C380.604034,213.486267 379.628937,211.235168 380.043915,210.698868 
	C380.922424,209.563492 382.688629,209.114990 384.426086,208.594620 
z"/>
<path fill="#E1DFED" opacity="1.000000" stroke="none" 
	d="
M476.168091,205.856262 
	C475.605194,203.973038 475.420502,202.226059 475.045898,198.682861 
	C477.798676,200.491714 479.314209,201.487564 480.829773,202.483444 
	C479.401917,203.653137 477.974091,204.822815 476.168091,205.856262 
z"/>
<path fill="#EEECF5" opacity="1.000000" stroke="none" 
	d="
M494.103943,214.664627 
	C493.206940,212.922638 492.472900,211.304031 492.334412,209.635971 
	C492.304382,209.274368 494.544647,208.194656 495.499268,208.427887 
	C496.480042,208.667496 498.028259,210.589661 497.832153,210.941315 
	C497.024292,212.390152 495.647858,213.521927 494.103943,214.664627 
z"/>
<path fill="#EBEAF3" opacity="1.000000" stroke="none" 
	d="
M416.053802,212.622223 
	C416.994781,210.881897 417.934387,209.404373 419.191650,208.283005 
	C419.382080,208.113159 421.552795,209.419128 421.894928,210.370636 
	C422.245239,211.345047 421.511780,213.740768 421.187408,213.752792 
	C419.521820,213.814484 417.835175,213.308624 416.053802,212.622223 
z"/>
<path fill="#EBEAF3" opacity="1.000000" stroke="none" 
	d="
M333.518433,214.352936 
	C331.776031,213.807907 330.020355,213.341263 329.131683,212.199692 
	C328.731659,211.685791 329.760162,209.426071 330.708191,208.707855 
	C331.400482,208.183380 334.014771,208.741837 334.060486,209.061935 
	C334.296692,210.716675 333.981476,212.450150 333.518433,214.352936 
z"/>
<path fill="#EBEAF3" opacity="1.000000" stroke="none" 
	d="
M404.042542,210.296371 
	C403.285492,212.040573 402.634888,213.680725 401.433105,214.601227 
	C401.036346,214.905106 398.589294,213.581467 398.223114,212.582764 
	C397.851715,211.569763 398.721771,209.044250 399.350189,208.936081 
	C400.779846,208.689972 402.394714,209.519547 404.042542,210.296371 
z"/>
</svg>